<?xml version="1.0" encoding="UTF-8" standalone="no"?>
<!-- Created with Inkscape (http://www.inkscape.org/) -->

<svg
   width="64"
   height="64"
   viewBox="0 0 16.933333 16.933333"
   version="1.1"
   id="svg8"
   inkscape:version="1.2.2 (b0a8486541, 2022-12-01)"
   sodipodi:docname="contentdroplets-github-icon.svg"
   xmlns:inkscape="http://www.inkscape.org/namespaces/inkscape"
   xmlns:sodipodi="http://sodipodi.sourceforge.net/DTD/sodipodi-0.dtd"
   xmlns="http://www.w3.org/2000/svg"
   xmlns:svg="http://www.w3.org/2000/svg"
   xmlns:rdf="http://www.w3.org/1999/02/22-rdf-syntax-ns#"
   xmlns:cc="http://creativecommons.org/ns#"
   xmlns:dc="http://purl.org/dc/elements/1.1/">
  <defs
     id="defs2">
    <rect
       x="7.5391113"
       y="4.5199951"
       width="57.240039"
       height="47.159998"
       id="rect1116" />
    <marker
       inkscape:stockid="Arrow1Lstart"
       orient="auto"
       refY="0.0"
       refX="0.0"
       id="marker1178"
       style="overflow:visible"
       inkscape:isstock="true">
      <path
         id="path1176"
         d="M 0.0,0.0 L 5.0,-5.0 L -12.5,0.0 L 5.0,5.0 L 0.0,0.0 z "
         style="fill-rule:evenodd;stroke:black;stroke-width:1pt;stroke-opacity:1"
         transform="scale(0.8) translate(12.5,0)" />
    </marker>
    <marker
       inkscape:stockid="Arrow1Lstart"
       orient="auto"
       refY="0.0"
       refX="0.0"
       id="Arrow1Lstart"
       style="overflow:visible"
       inkscape:isstock="true">
      <path
         id="path900"
         d="M 0.0,0.0 L 5.0,-5.0 L -12.5,0.0 L 5.0,5.0 L 0.0,0.0 z "
         style="fill-rule:evenodd;stroke:black;stroke-width:1pt;stroke-opacity:1"
         transform="scale(0.8) translate(12.5,0)" />
    </marker>
  </defs>
  <sodipodi:namedview
     id="base"
     pagecolor="#ffffff"
     bordercolor="#666666"
     borderopacity="1.0"
     inkscape:pageopacity="0.0"
     inkscape:pageshadow="2"
     inkscape:zoom="7.0710678"
     inkscape:cx="1.2020815"
     inkscape:cy="30.476302"
     inkscape:document-units="px"
     inkscape:current-layer="g330"
     showgrid="false"
     units="px"
     width="64px"
     inkscape:pagecheckerboard="false"
     inkscape:snap-text-baseline="false"
     showguides="false"
     inkscape:guide-bbox="true"
     inkscape:window-width="1920"
     inkscape:window-height="1008"
     inkscape:window-x="1920"
     inkscape:window-y="0"
     inkscape:window-maximized="1"
     inkscape:showpageshadow="2"
     inkscape:deskcolor="#d1d1d1">
    <sodipodi:guide
       position="8.4808406,22.749442"
       orientation="1,0"
       id="guide890"
       inkscape:locked="false" />
    <sodipodi:guide
       position="1.905,8.4666665"
       orientation="0,1"
       id="guide892"
       inkscape:locked="false" />
    <sodipodi:guide
       position="3.5671502,6.1539247"
       orientation="1,0"
       id="guide894"
       inkscape:locked="false" />
    <sodipodi:guide
       position="13.429966,4.3703496"
       orientation="1,0"
       id="guide896"
       inkscape:locked="false" />
    <sodipodi:guide
       position="7.9512683,10.664054"
       orientation="1,0"
       id="guide1887"
       inkscape:locked="false" />
    <sodipodi:guide
       position="8.9989648,9.3357244"
       orientation="1,0"
       id="guide1889"
       inkscape:locked="false" />
    <sodipodi:guide
       position="10.514383,15.416106"
       orientation="0,1"
       id="guide1909"
       inkscape:locked="false" />
    <sodipodi:guide
       position="8.9989648,2.3547916"
       orientation="0,1"
       id="guide1911"
       inkscape:locked="false" />
    <sodipodi:guide
       position="0.92604166,14.47271"
       orientation="0,1"
       id="guide1915"
       inkscape:locked="false" />
  </sodipodi:namedview>
  <metadata
     id="metadata5">
    <rdf:RDF>
      <cc:Work
         rdf:about="">
        <dc:format>image/svg+xml</dc:format>
        <dc:type
           rdf:resource="http://purl.org/dc/dcmitype/StillImage" />
        <dc:title />
      </cc:Work>
    </rdf:RDF>
  </metadata>
  <g
     inkscape:label="Ebene 1"
     inkscape:groupmode="layer"
     id="layer1"
     transform="translate(0,-280.06666)">
    <g
       id="g861"
       transform="translate(0,3e-6)" />
    <g
       id="g905">
      <g
         id="g937"
         transform="matrix(1.3983822,0,0,1.3983822,-3.5034622,-111.61156)"
         style="stroke-width:0.71511215">
        <g
           id="g1214"
           transform="translate(0.17660457,0.03210814)">
          <g
             id="g1271"
             transform="translate(-1.9132317,0.77787671)">
            <g
               id="g330">
              <path
                 d="m 10.296601,282.44934 c -1.6366214,0 -2.9622118,1.32559 -2.9622118,2.9622 0,1.3108 0.8479337,2.41791 2.025414,2.8104 0.148111,0.0258 0.203651,-0.0631 0.203651,-0.1407 0,-0.0702 -0.0036,-0.30363 -0.0036,-0.5517 -0.7442564,0.137 -0.9368003,-0.18141 -0.9960447,-0.34807 -0.033326,-0.0851 -0.1777323,-0.34805 -0.3036268,-0.4184 -0.103678,-0.0556 -0.2517879,-0.19258 -0.0037,-0.19626 0.2332744,-0.004 0.3998988,0.21477 0.4554403,0.30363 0.2665994,0.44804 0.6924172,0.32215 0.8627442,0.24438 0.02592,-0.19258 0.103677,-0.32215 0.188843,-0.3962 -0.6590928,-0.074 -1.347807,-0.32954 -1.347807,-1.46258 0,-0.32215 0.1147859,-0.58874 0.3036268,-0.79611 -0.029621,-0.074 -0.1332987,-0.37768 0.029623,-0.78499 0,0 0.2480859,-0.0777 0.8146082,0.30363 0.236977,-0.0666 0.4887648,-0.1 0.7405538,-0.1 0.251787,0 0.503576,0.0332 0.740552,0.1 0.566523,-0.38507 0.81461,-0.30363 0.81461,-0.30363 0.162919,0.40731 0.05924,0.71094 0.02963,0.78499 0.18885,0.20737 0.303625,0.47028 0.303625,0.79611 0,1.13674 -0.692416,1.38853 -1.351509,1.46258 0.107377,0.0925 0.19995,0.2703 0.19995,0.54801 0,0.3962 -0.0038,0.71465 -0.0038,0.81461 0,0.0777 0.05554,0.17026 0.20365,0.1407 a 2.965916,2.965916 0 0 0 2.018009,-2.8104 c 0,-1.63661 -1.325591,-2.9622 -2.962214,-2.9622"
                 id="path2166"
                 style="stroke-width:0.26479" />
            </g>
          </g>
        </g>
      </g>
    </g>
  </g>
  <style
     id="style817"
     type="text/css">
	.st0{fill:#FFFFFF;}
	.st1{fill:none;}
	.st2{fill:#3E5389;}
</style>
</svg>
